<mxfile host="app.diagrams.net" agent="Mozilla/5.0 (Windows NT 10.0; Win64; x64) AppleWebKit/537.36 (KHTML, like Gecko) Chrome/135.0.0.0 Safari/537.36" version="26.2.13">
  <diagram name="Page-1" id="e7e014a7-5840-1c2e-5031-d8a46d1fe8dd">
    <mxGraphModel dx="1808" dy="928" grid="1" gridSize="10" guides="1" tooltips="1" connect="1" arrows="1" fold="1" page="1" pageScale="1" pageWidth="1169" pageHeight="826" background="none" math="0" shadow="0">
      <root>
        <mxCell id="0" />
        <mxCell id="1" parent="0" />
        <mxCell id="blLtS9DisGly94zTEJrf-41" value="Quản trị viên" style="swimlane;whiteSpace=wrap" vertex="1" parent="1">
          <mxGeometry x="439" y="128" width="321" height="912" as="geometry" />
        </mxCell>
        <mxCell id="blLtS9DisGly94zTEJrf-42" value="" style="edgeStyle=orthogonalEdgeStyle;rounded=0;orthogonalLoop=1;jettySize=auto;html=1;" edge="1" parent="blLtS9DisGly94zTEJrf-41" source="blLtS9DisGly94zTEJrf-43">
          <mxGeometry relative="1" as="geometry">
            <mxPoint x="123.5" y="52" as="targetPoint" />
          </mxGeometry>
        </mxCell>
        <mxCell id="blLtS9DisGly94zTEJrf-43" value="" style="ellipse;shape=startState;fillColor=#000000;strokeColor=#ff0000;" vertex="1" parent="blLtS9DisGly94zTEJrf-41">
          <mxGeometry x="28.5" y="27" width="50" height="50" as="geometry" />
        </mxCell>
        <mxCell id="blLtS9DisGly94zTEJrf-44" value="" style="edgeStyle=orthogonalEdgeStyle;rounded=0;orthogonalLoop=1;jettySize=auto;html=1;" edge="1" parent="blLtS9DisGly94zTEJrf-41" source="blLtS9DisGly94zTEJrf-45" target="blLtS9DisGly94zTEJrf-46">
          <mxGeometry relative="1" as="geometry" />
        </mxCell>
        <mxCell id="blLtS9DisGly94zTEJrf-45" value="Đăng nhập vào hệ thống quản trị" style="rounded=1;whiteSpace=wrap;html=1;" vertex="1" parent="blLtS9DisGly94zTEJrf-41">
          <mxGeometry x="115.5" y="27" width="120" height="43" as="geometry" />
        </mxCell>
        <mxCell id="blLtS9DisGly94zTEJrf-46" value="Truy cập trang quản lý đơn hàng" style="whiteSpace=wrap;html=1;rounded=1;" vertex="1" parent="blLtS9DisGly94zTEJrf-41">
          <mxGeometry x="5.5" y="112" width="120" height="38" as="geometry" />
        </mxCell>
        <mxCell id="blLtS9DisGly94zTEJrf-47" value="Chọn hành động ?" style="rhombus;whiteSpace=wrap;html=1;fillColor=#FFFF66;" vertex="1" parent="blLtS9DisGly94zTEJrf-41">
          <mxGeometry x="35.5" y="152" width="80" height="80" as="geometry" />
        </mxCell>
        <mxCell id="blLtS9DisGly94zTEJrf-48" value="" style="edgeStyle=orthogonalEdgeStyle;rounded=0;orthogonalLoop=1;jettySize=auto;html=1;exitX=0.5;exitY=1;exitDx=0;exitDy=0;" edge="1" parent="blLtS9DisGly94zTEJrf-41" source="blLtS9DisGly94zTEJrf-69">
          <mxGeometry relative="1" as="geometry">
            <mxPoint x="336.5000000000001" y="150.00000000000006" as="sourcePoint" />
            <mxPoint x="115.5" y="192" as="targetPoint" />
            <Array as="points">
              <mxPoint x="420" y="150" />
              <mxPoint x="420" y="192" />
            </Array>
          </mxGeometry>
        </mxCell>
        <mxCell id="blLtS9DisGly94zTEJrf-49" value="Chọn trạng thái từ dropdown" style="rounded=1;whiteSpace=wrap;html=1;" vertex="1" parent="blLtS9DisGly94zTEJrf-41">
          <mxGeometry x="135.5" y="230" width="120" height="42" as="geometry" />
        </mxCell>
        <mxCell id="blLtS9DisGly94zTEJrf-50" value="" style="edgeStyle=orthogonalEdgeStyle;rounded=0;orthogonalLoop=1;jettySize=auto;html=1;" edge="1" parent="blLtS9DisGly94zTEJrf-41" source="blLtS9DisGly94zTEJrf-51" target="blLtS9DisGly94zTEJrf-62">
          <mxGeometry relative="1" as="geometry" />
        </mxCell>
        <mxCell id="blLtS9DisGly94zTEJrf-51" value="Nhấp nút View của đơn hàng" style="rounded=1;whiteSpace=wrap;html=1;" vertex="1" parent="blLtS9DisGly94zTEJrf-41">
          <mxGeometry x="135.5" y="319" width="120" height="44" as="geometry" />
        </mxCell>
        <mxCell id="blLtS9DisGly94zTEJrf-52" value="" style="edgeStyle=orthogonalEdgeStyle;rounded=0;orthogonalLoop=1;jettySize=auto;html=1;" edge="1" parent="blLtS9DisGly94zTEJrf-41" source="blLtS9DisGly94zTEJrf-53" target="blLtS9DisGly94zTEJrf-63">
          <mxGeometry relative="1" as="geometry" />
        </mxCell>
        <mxCell id="blLtS9DisGly94zTEJrf-53" value="Nhấp nút Update Status của đơn hàng" style="rounded=1;whiteSpace=wrap;html=1;" vertex="1" parent="blLtS9DisGly94zTEJrf-41">
          <mxGeometry x="157.5" y="489" width="120" height="44" as="geometry" />
        </mxCell>
        <mxCell id="blLtS9DisGly94zTEJrf-62" value="Hiển thị chi tiết đơn hàng" style="whiteSpace=wrap;html=1;rounded=1;" vertex="1" parent="blLtS9DisGly94zTEJrf-41">
          <mxGeometry x="335.5" y="311" width="120" height="60" as="geometry" />
        </mxCell>
        <mxCell id="blLtS9DisGly94zTEJrf-63" value="Hiển thị form cập nhật trạng thái" style="whiteSpace=wrap;html=1;rounded=1;" vertex="1" parent="blLtS9DisGly94zTEJrf-41">
          <mxGeometry x="357.5" y="481" width="120" height="60" as="geometry" />
        </mxCell>
        <mxCell id="blLtS9DisGly94zTEJrf-64" value="SHIPPED ?" style="rhombus;whiteSpace=wrap;html=1;rounded=1;fillColor=#FFFF66;" vertex="1" parent="blLtS9DisGly94zTEJrf-41">
          <mxGeometry x="107.75" y="528" width="80" height="80" as="geometry" />
        </mxCell>
        <mxCell id="blLtS9DisGly94zTEJrf-80" value="Quay lại" style="rounded=1;whiteSpace=wrap;html=1;" vertex="1" parent="blLtS9DisGly94zTEJrf-41">
          <mxGeometry x="218.5" y="399" width="74.5" height="42" as="geometry" />
        </mxCell>
        <mxCell id="blLtS9DisGly94zTEJrf-131" value="Chọn trạng thái mới" style="rounded=1;whiteSpace=wrap;html=1;" vertex="1" parent="blLtS9DisGly94zTEJrf-41">
          <mxGeometry x="222" y="549" width="71" height="40" as="geometry" />
        </mxCell>
        <mxCell id="blLtS9DisGly94zTEJrf-132" value="" style="endArrow=classic;html=1;rounded=0;entryX=1;entryY=0.5;entryDx=0;entryDy=0;exitX=0.5;exitY=1;exitDx=0;exitDy=0;" edge="1" parent="blLtS9DisGly94zTEJrf-41" source="blLtS9DisGly94zTEJrf-63" target="blLtS9DisGly94zTEJrf-131">
          <mxGeometry width="50" height="50" relative="1" as="geometry">
            <mxPoint x="231" y="519" as="sourcePoint" />
            <mxPoint x="281" y="469" as="targetPoint" />
            <Array as="points">
              <mxPoint x="418" y="569" />
            </Array>
          </mxGeometry>
        </mxCell>
        <mxCell id="blLtS9DisGly94zTEJrf-133" value="" style="endArrow=classic;html=1;rounded=0;exitX=0;exitY=0.5;exitDx=0;exitDy=0;entryX=1;entryY=0.5;entryDx=0;entryDy=0;" edge="1" parent="blLtS9DisGly94zTEJrf-41" source="blLtS9DisGly94zTEJrf-131" target="blLtS9DisGly94zTEJrf-64">
          <mxGeometry width="50" height="50" relative="1" as="geometry">
            <mxPoint x="231" y="519" as="sourcePoint" />
            <mxPoint x="281" y="469" as="targetPoint" />
          </mxGeometry>
        </mxCell>
        <mxCell id="blLtS9DisGly94zTEJrf-91" value="Nhập mã vận đơn" style="rounded=1;whiteSpace=wrap;html=1;" vertex="1" parent="blLtS9DisGly94zTEJrf-41">
          <mxGeometry x="115.5" y="628" width="80" height="42" as="geometry" />
        </mxCell>
        <mxCell id="blLtS9DisGly94zTEJrf-134" value="" style="endArrow=classic;html=1;rounded=0;exitX=0.508;exitY=0.932;exitDx=0;exitDy=0;entryX=0.42;entryY=-0.054;entryDx=0;entryDy=0;exitPerimeter=0;entryPerimeter=0;" edge="1" parent="blLtS9DisGly94zTEJrf-41" source="blLtS9DisGly94zTEJrf-64" target="blLtS9DisGly94zTEJrf-91">
          <mxGeometry width="50" height="50" relative="1" as="geometry">
            <mxPoint x="147.75" y="608" as="sourcePoint" />
            <mxPoint x="160.5" y="629" as="targetPoint" />
          </mxGeometry>
        </mxCell>
        <mxCell id="blLtS9DisGly94zTEJrf-136" value="Có" style="edgeLabel;html=1;align=center;verticalAlign=middle;resizable=0;points=[];" vertex="1" connectable="0" parent="blLtS9DisGly94zTEJrf-134">
          <mxGeometry x="-0.2842" relative="1" as="geometry">
            <mxPoint as="offset" />
          </mxGeometry>
        </mxCell>
        <mxCell id="blLtS9DisGly94zTEJrf-92" value="Nhấn nút &quot;Update" style="whiteSpace=wrap;html=1;rounded=1;" vertex="1" parent="blLtS9DisGly94zTEJrf-41">
          <mxGeometry x="222" y="629" width="94.5" height="41" as="geometry" />
        </mxCell>
        <mxCell id="blLtS9DisGly94zTEJrf-90" value="" style="edgeStyle=orthogonalEdgeStyle;rounded=0;orthogonalLoop=1;jettySize=auto;html=1;" edge="1" parent="blLtS9DisGly94zTEJrf-41" source="blLtS9DisGly94zTEJrf-91" target="blLtS9DisGly94zTEJrf-92">
          <mxGeometry relative="1" as="geometry" />
        </mxCell>
        <mxCell id="blLtS9DisGly94zTEJrf-154" value="" style="endArrow=classic;html=1;rounded=0;entryX=0.5;entryY=1;entryDx=0;entryDy=0;exitX=0;exitY=0.5;exitDx=0;exitDy=0;strokeColor=#FF3333;" edge="1" parent="blLtS9DisGly94zTEJrf-41" source="blLtS9DisGly94zTEJrf-64" target="blLtS9DisGly94zTEJrf-92">
          <mxGeometry width="50" height="50" relative="1" as="geometry">
            <mxPoint x="311" y="572" as="sourcePoint" />
            <mxPoint x="361" y="522" as="targetPoint" />
            <Array as="points">
              <mxPoint x="108" y="692" />
              <mxPoint x="269" y="692" />
            </Array>
          </mxGeometry>
        </mxCell>
        <mxCell id="blLtS9DisGly94zTEJrf-155" value="&lt;font style=&quot;color: rgb(255, 51, 51);&quot;&gt;Không&lt;/font&gt;" style="edgeLabel;html=1;align=center;verticalAlign=middle;resizable=0;points=[];" vertex="1" connectable="0" parent="blLtS9DisGly94zTEJrf-154">
          <mxGeometry x="-0.6699" y="-2" relative="1" as="geometry">
            <mxPoint as="offset" />
          </mxGeometry>
        </mxCell>
        <mxCell id="blLtS9DisGly94zTEJrf-55" value="" style="ellipse;whiteSpace=wrap;html=1;aspect=fixed;fillColor=#FF3333;strokeColor=#FF3333;" vertex="1" parent="blLtS9DisGly94zTEJrf-41">
          <mxGeometry x="199.5" y="852" width="36" height="36" as="geometry" />
        </mxCell>
        <mxCell id="blLtS9DisGly94zTEJrf-68" value="Hệ thống" style="swimlane;whiteSpace=wrap" vertex="1" parent="1">
          <mxGeometry x="760" y="128" width="407.5" height="912" as="geometry" />
        </mxCell>
        <mxCell id="blLtS9DisGly94zTEJrf-69" value="Hiển thị danh sách đơn hàng" style="whiteSpace=wrap;html=1;rounded=1;" vertex="1" parent="blLtS9DisGly94zTEJrf-68">
          <mxGeometry x="36.5" y="112" width="120" height="38" as="geometry" />
        </mxCell>
        <mxCell id="blLtS9DisGly94zTEJrf-128" value="" style="edgeStyle=orthogonalEdgeStyle;rounded=0;orthogonalLoop=1;jettySize=auto;html=1;" edge="1" parent="blLtS9DisGly94zTEJrf-68" source="blLtS9DisGly94zTEJrf-70" target="blLtS9DisGly94zTEJrf-127">
          <mxGeometry relative="1" as="geometry" />
        </mxCell>
        <mxCell id="blLtS9DisGly94zTEJrf-70" value="Lọc đơn hàng theo trạng thái" style="whiteSpace=wrap;html=1;rounded=1;" vertex="1" parent="blLtS9DisGly94zTEJrf-68">
          <mxGeometry x="35" y="231" width="95" height="40" as="geometry" />
        </mxCell>
        <mxCell id="blLtS9DisGly94zTEJrf-76" value="Xem thông tin đơn hàng" style="whiteSpace=wrap;html=1;rounded=1;" vertex="1" parent="blLtS9DisGly94zTEJrf-68">
          <mxGeometry x="-220" y="399" width="90" height="40" as="geometry" />
        </mxCell>
        <mxCell id="blLtS9DisGly94zTEJrf-79" style="edgeStyle=orthogonalEdgeStyle;rounded=0;orthogonalLoop=1;jettySize=auto;html=1;exitX=0.5;exitY=1;exitDx=0;exitDy=0;" edge="1" parent="blLtS9DisGly94zTEJrf-68" source="blLtS9DisGly94zTEJrf-80">
          <mxGeometry relative="1" as="geometry">
            <mxPoint x="-310" y="152" as="targetPoint" />
            <Array as="points">
              <mxPoint x="-65" y="472" />
              <mxPoint x="-310" y="472" />
            </Array>
          </mxGeometry>
        </mxCell>
        <mxCell id="blLtS9DisGly94zTEJrf-127" value="Hiển thị danh sách đơn hàng đã lọc" style="whiteSpace=wrap;html=1;rounded=1;" vertex="1" parent="blLtS9DisGly94zTEJrf-68">
          <mxGeometry x="197.5" y="231" width="122.5" height="40" as="geometry" />
        </mxCell>
        <mxCell id="blLtS9DisGly94zTEJrf-141" value="" style="edgeStyle=orthogonalEdgeStyle;rounded=0;orthogonalLoop=1;jettySize=auto;html=1;" edge="1" parent="blLtS9DisGly94zTEJrf-68" source="blLtS9DisGly94zTEJrf-138" target="blLtS9DisGly94zTEJrf-140">
          <mxGeometry relative="1" as="geometry" />
        </mxCell>
        <mxCell id="blLtS9DisGly94zTEJrf-138" value="Cập nhật trạng thái đơn hàng" style="rounded=1;whiteSpace=wrap;html=1;" vertex="1" parent="blLtS9DisGly94zTEJrf-68">
          <mxGeometry x="30.5" y="628" width="80" height="42" as="geometry" />
        </mxCell>
        <mxCell id="blLtS9DisGly94zTEJrf-143" value="" style="edgeStyle=orthogonalEdgeStyle;rounded=0;orthogonalLoop=1;jettySize=auto;html=1;" edge="1" parent="blLtS9DisGly94zTEJrf-68" source="blLtS9DisGly94zTEJrf-140" target="blLtS9DisGly94zTEJrf-142">
          <mxGeometry relative="1" as="geometry" />
        </mxCell>
        <mxCell id="blLtS9DisGly94zTEJrf-144" value="Có" style="edgeLabel;html=1;align=center;verticalAlign=middle;resizable=0;points=[];" vertex="1" connectable="0" parent="blLtS9DisGly94zTEJrf-143">
          <mxGeometry x="-0.6202" y="4" relative="1" as="geometry">
            <mxPoint as="offset" />
          </mxGeometry>
        </mxCell>
        <mxCell id="blLtS9DisGly94zTEJrf-140" value="DELIVERED?" style="rhombus;whiteSpace=wrap;html=1;rounded=1;fillColor=#FFFF66;" vertex="1" parent="blLtS9DisGly94zTEJrf-68">
          <mxGeometry x="147.5" y="609" width="80" height="80" as="geometry" />
        </mxCell>
        <mxCell id="blLtS9DisGly94zTEJrf-146" value="" style="edgeStyle=orthogonalEdgeStyle;rounded=0;orthogonalLoop=1;jettySize=auto;html=1;" edge="1" parent="blLtS9DisGly94zTEJrf-68" source="blLtS9DisGly94zTEJrf-142" target="blLtS9DisGly94zTEJrf-145">
          <mxGeometry relative="1" as="geometry" />
        </mxCell>
        <mxCell id="blLtS9DisGly94zTEJrf-142" value="Cập nhật ngày giao hàng" style="whiteSpace=wrap;html=1;rounded=1;" vertex="1" parent="blLtS9DisGly94zTEJrf-68">
          <mxGeometry x="260" y="624" width="100" height="50" as="geometry" />
        </mxCell>
        <mxCell id="blLtS9DisGly94zTEJrf-148" value="" style="edgeStyle=orthogonalEdgeStyle;rounded=0;orthogonalLoop=1;jettySize=auto;html=1;" edge="1" parent="blLtS9DisGly94zTEJrf-68" source="blLtS9DisGly94zTEJrf-145" target="blLtS9DisGly94zTEJrf-147">
          <mxGeometry relative="1" as="geometry" />
        </mxCell>
        <mxCell id="blLtS9DisGly94zTEJrf-158" value="Có" style="edgeLabel;html=1;align=center;verticalAlign=middle;resizable=0;points=[];" vertex="1" connectable="0" parent="blLtS9DisGly94zTEJrf-148">
          <mxGeometry x="-0.0344" y="-2" relative="1" as="geometry">
            <mxPoint as="offset" />
          </mxGeometry>
        </mxCell>
        <mxCell id="blLtS9DisGly94zTEJrf-145" value="CANCELLED?" style="rhombus;whiteSpace=wrap;html=1;rounded=1;fillColor=#FFFF66;" vertex="1" parent="blLtS9DisGly94zTEJrf-68">
          <mxGeometry x="270" y="739" width="80" height="80" as="geometry" />
        </mxCell>
        <mxCell id="blLtS9DisGly94zTEJrf-151" value="" style="edgeStyle=orthogonalEdgeStyle;rounded=0;orthogonalLoop=1;jettySize=auto;html=1;" edge="1" parent="blLtS9DisGly94zTEJrf-68" source="blLtS9DisGly94zTEJrf-147" target="blLtS9DisGly94zTEJrf-149">
          <mxGeometry relative="1" as="geometry" />
        </mxCell>
        <mxCell id="blLtS9DisGly94zTEJrf-147" value="Khôi phục số lượng tồn kho" style="whiteSpace=wrap;html=1;rounded=1;" vertex="1" parent="blLtS9DisGly94zTEJrf-68">
          <mxGeometry x="130" y="759" width="80" height="40" as="geometry" />
        </mxCell>
        <mxCell id="blLtS9DisGly94zTEJrf-149" value="Hiển thị thông báo cập nhật thành công" style="whiteSpace=wrap;html=1;rounded=1;" vertex="1" parent="blLtS9DisGly94zTEJrf-68">
          <mxGeometry x="12" y="760" width="90" height="40" as="geometry" />
        </mxCell>
        <mxCell id="blLtS9DisGly94zTEJrf-153" value="" style="endArrow=classic;html=1;rounded=0;exitX=0.5;exitY=1;exitDx=0;exitDy=0;entryX=0.5;entryY=1;entryDx=0;entryDy=0;strokeColor=#FF3333;" edge="1" parent="blLtS9DisGly94zTEJrf-68">
          <mxGeometry width="50" height="50" relative="1" as="geometry">
            <mxPoint x="310" y="816.0000000000002" as="sourcePoint" />
            <mxPoint x="57" y="797" as="targetPoint" />
            <Array as="points">
              <mxPoint x="57" y="816" />
            </Array>
          </mxGeometry>
        </mxCell>
        <mxCell id="blLtS9DisGly94zTEJrf-164" value="&lt;font style=&quot;color: rgb(255, 51, 51);&quot;&gt;Không&lt;/font&gt;" style="edgeLabel;html=1;align=center;verticalAlign=middle;resizable=0;points=[];" vertex="1" connectable="0" parent="blLtS9DisGly94zTEJrf-153">
          <mxGeometry x="-0.4488" y="-1" relative="1" as="geometry">
            <mxPoint as="offset" />
          </mxGeometry>
        </mxCell>
        <mxCell id="blLtS9DisGly94zTEJrf-156" value="" style="endArrow=classic;html=1;rounded=0;entryX=0.395;entryY=0.057;entryDx=0;entryDy=0;entryPerimeter=0;exitX=0.5;exitY=1;exitDx=0;exitDy=0;strokeColor=#FF3333;" edge="1" parent="blLtS9DisGly94zTEJrf-68" source="blLtS9DisGly94zTEJrf-140" target="blLtS9DisGly94zTEJrf-145">
          <mxGeometry width="50" height="50" relative="1" as="geometry">
            <mxPoint x="110" y="782" as="sourcePoint" />
            <mxPoint x="160" y="732" as="targetPoint" />
          </mxGeometry>
        </mxCell>
        <mxCell id="blLtS9DisGly94zTEJrf-157" value="&lt;font style=&quot;color: rgb(255, 51, 51);&quot;&gt;Không&lt;/font&gt;" style="edgeLabel;html=1;align=center;verticalAlign=middle;resizable=0;points=[];" vertex="1" connectable="0" parent="blLtS9DisGly94zTEJrf-156">
          <mxGeometry x="-0.2639" y="1" relative="1" as="geometry">
            <mxPoint as="offset" />
          </mxGeometry>
        </mxCell>
        <mxCell id="blLtS9DisGly94zTEJrf-96" value="" style="edgeStyle=orthogonalEdgeStyle;rounded=0;orthogonalLoop=1;jettySize=auto;html=1;" edge="1" parent="1" source="blLtS9DisGly94zTEJrf-46" target="blLtS9DisGly94zTEJrf-69">
          <mxGeometry relative="1" as="geometry">
            <Array as="points">
              <mxPoint x="750" y="260" />
              <mxPoint x="750" y="260" />
            </Array>
          </mxGeometry>
        </mxCell>
        <mxCell id="blLtS9DisGly94zTEJrf-97" value="" style="endArrow=none;html=1;rounded=0;entryX=0.5;entryY=1;entryDx=0;entryDy=0;" edge="1" parent="1" target="blLtS9DisGly94zTEJrf-47">
          <mxGeometry width="50" height="50" relative="1" as="geometry">
            <mxPoint x="516" y="560" as="sourcePoint" />
            <mxPoint x="560" y="400" as="targetPoint" />
          </mxGeometry>
        </mxCell>
        <mxCell id="blLtS9DisGly94zTEJrf-98" value="" style="endArrow=classic;html=1;rounded=0;entryX=0;entryY=0.5;entryDx=0;entryDy=0;" edge="1" parent="1" target="blLtS9DisGly94zTEJrf-49">
          <mxGeometry width="50" height="50" relative="1" as="geometry">
            <mxPoint x="516" y="379" as="sourcePoint" />
            <mxPoint x="565.4999999999999" y="379" as="targetPoint" />
          </mxGeometry>
        </mxCell>
        <mxCell id="blLtS9DisGly94zTEJrf-124" value="Lọc" style="edgeLabel;html=1;align=center;verticalAlign=middle;resizable=0;points=[];" vertex="1" connectable="0" parent="blLtS9DisGly94zTEJrf-98">
          <mxGeometry x="-0.2646" relative="1" as="geometry">
            <mxPoint as="offset" />
          </mxGeometry>
        </mxCell>
        <mxCell id="blLtS9DisGly94zTEJrf-100" value="" style="endArrow=classic;html=1;rounded=0;" edge="1" parent="1">
          <mxGeometry width="50" height="50" relative="1" as="geometry">
            <mxPoint x="516" y="464" as="sourcePoint" />
            <mxPoint x="576" y="464" as="targetPoint" />
          </mxGeometry>
        </mxCell>
        <mxCell id="blLtS9DisGly94zTEJrf-125" value="Xem" style="edgeLabel;html=1;align=center;verticalAlign=middle;resizable=0;points=[];" vertex="1" connectable="0" parent="blLtS9DisGly94zTEJrf-100">
          <mxGeometry x="-0.1636" y="2" relative="1" as="geometry">
            <mxPoint as="offset" />
          </mxGeometry>
        </mxCell>
        <mxCell id="blLtS9DisGly94zTEJrf-102" value="" style="endArrow=classic;html=1;rounded=0;entryX=0;entryY=0.5;entryDx=0;entryDy=0;" edge="1" parent="1" target="blLtS9DisGly94zTEJrf-53">
          <mxGeometry width="50" height="50" relative="1" as="geometry">
            <mxPoint x="516" y="639" as="sourcePoint" />
            <mxPoint x="575.5000000000001" y="680.9999999999998" as="targetPoint" />
          </mxGeometry>
        </mxCell>
        <mxCell id="blLtS9DisGly94zTEJrf-103" value="Xóa" style="edgeLabel;html=1;align=center;verticalAlign=middle;resizable=0;points=[];" vertex="1" connectable="0" parent="blLtS9DisGly94zTEJrf-102">
          <mxGeometry x="-0.0298" relative="1" as="geometry">
            <mxPoint as="offset" />
          </mxGeometry>
        </mxCell>
        <mxCell id="blLtS9DisGly94zTEJrf-126" value="Cập nhật" style="edgeLabel;html=1;align=center;verticalAlign=middle;resizable=0;points=[];" vertex="1" connectable="0" parent="blLtS9DisGly94zTEJrf-102">
          <mxGeometry x="0.001" y="1" relative="1" as="geometry">
            <mxPoint as="offset" />
          </mxGeometry>
        </mxCell>
        <mxCell id="blLtS9DisGly94zTEJrf-106" value="" style="edgeStyle=orthogonalEdgeStyle;rounded=0;orthogonalLoop=1;jettySize=auto;html=1;" edge="1" parent="1" source="blLtS9DisGly94zTEJrf-49" target="blLtS9DisGly94zTEJrf-70">
          <mxGeometry relative="1" as="geometry" />
        </mxCell>
        <mxCell id="blLtS9DisGly94zTEJrf-107" value="" style="edgeStyle=orthogonalEdgeStyle;rounded=0;orthogonalLoop=1;jettySize=auto;html=1;exitX=0.5;exitY=1;exitDx=0;exitDy=0;" edge="1" parent="1" source="blLtS9DisGly94zTEJrf-127">
          <mxGeometry relative="1" as="geometry">
            <Array as="points">
              <mxPoint x="1019" y="410" />
            </Array>
            <mxPoint x="480" y="410" as="targetPoint" />
          </mxGeometry>
        </mxCell>
        <mxCell id="blLtS9DisGly94zTEJrf-111" value="" style="endArrow=none;html=1;rounded=0;entryX=0.5;entryY=1;entryDx=0;entryDy=0;" edge="1" parent="1" target="blLtS9DisGly94zTEJrf-47">
          <mxGeometry width="50" height="50" relative="1" as="geometry">
            <mxPoint x="516" y="1071.8182373046875" as="sourcePoint" />
            <mxPoint x="516" y="360" as="targetPoint" />
          </mxGeometry>
        </mxCell>
        <mxCell id="blLtS9DisGly94zTEJrf-112" value="" style="endArrow=classic;html=1;rounded=0;entryX=0.415;entryY=0.092;entryDx=0;entryDy=0;entryPerimeter=0;" edge="1" parent="1" target="blLtS9DisGly94zTEJrf-76">
          <mxGeometry width="50" height="50" relative="1" as="geometry">
            <mxPoint x="840" y="497" as="sourcePoint" />
            <mxPoint x="730" y="647" as="targetPoint" />
            <Array as="points">
              <mxPoint x="840" y="507" />
              <mxPoint x="577" y="507" />
            </Array>
          </mxGeometry>
        </mxCell>
        <mxCell id="blLtS9DisGly94zTEJrf-130" value="" style="endArrow=classic;html=1;rounded=0;exitX=1;exitY=0.5;exitDx=0;exitDy=0;entryX=0;entryY=0.5;entryDx=0;entryDy=0;" edge="1" parent="1" source="blLtS9DisGly94zTEJrf-76" target="blLtS9DisGly94zTEJrf-80">
          <mxGeometry width="50" height="50" relative="1" as="geometry">
            <mxPoint x="670" y="487" as="sourcePoint" />
            <mxPoint x="720" y="437" as="targetPoint" />
          </mxGeometry>
        </mxCell>
        <mxCell id="blLtS9DisGly94zTEJrf-139" value="" style="endArrow=classic;html=1;rounded=0;exitX=1;exitY=0.5;exitDx=0;exitDy=0;entryX=0;entryY=0.5;entryDx=0;entryDy=0;" edge="1" parent="1" source="blLtS9DisGly94zTEJrf-92" target="blLtS9DisGly94zTEJrf-138">
          <mxGeometry width="50" height="50" relative="1" as="geometry">
            <mxPoint x="750" y="787" as="sourcePoint" />
            <mxPoint x="800" y="737" as="targetPoint" />
          </mxGeometry>
        </mxCell>
        <mxCell id="blLtS9DisGly94zTEJrf-159" value="" style="endArrow=classic;html=1;rounded=0;" edge="1" parent="1">
          <mxGeometry width="50" height="50" relative="1" as="geometry">
            <mxPoint x="770" y="910" as="sourcePoint" />
            <mxPoint x="480" y="910" as="targetPoint" />
          </mxGeometry>
        </mxCell>
        <mxCell id="blLtS9DisGly94zTEJrf-160" value="" style="endArrow=none;html=1;rounded=0;entryX=0.066;entryY=0.593;entryDx=0;entryDy=0;entryPerimeter=0;" edge="1" parent="1" target="blLtS9DisGly94zTEJrf-47">
          <mxGeometry width="50" height="50" relative="1" as="geometry">
            <mxPoint x="480" y="950" as="sourcePoint" />
            <mxPoint x="670" y="790" as="targetPoint" />
          </mxGeometry>
        </mxCell>
        <mxCell id="blLtS9DisGly94zTEJrf-161" value="" style="endArrow=classic;html=1;rounded=0;entryX=0;entryY=0.5;entryDx=0;entryDy=0;" edge="1" parent="1" target="blLtS9DisGly94zTEJrf-55">
          <mxGeometry width="50" height="50" relative="1" as="geometry">
            <mxPoint x="520" y="1000" as="sourcePoint" />
            <mxPoint x="800" y="990" as="targetPoint" />
          </mxGeometry>
        </mxCell>
        <mxCell id="blLtS9DisGly94zTEJrf-163" value="Thoát" style="edgeLabel;html=1;align=center;verticalAlign=middle;resizable=0;points=[];" vertex="1" connectable="0" parent="blLtS9DisGly94zTEJrf-161">
          <mxGeometry x="-0.2351" y="1" relative="1" as="geometry">
            <mxPoint x="-1" as="offset" />
          </mxGeometry>
        </mxCell>
      </root>
    </mxGraphModel>
  </diagram>
</mxfile>
